PathFileType	4	(X/Y/Z)	./resultDataOpenSim/trcMotMarkerGrf/sub10/qtm-02-01.trc
DataRate	CameraRate	NumFrames	NumMarkers	Units	OrigDataRate	OrigDataStartFrame	OrigNumFrames
250.000000	250.000000	7	24	m	250.000000	173	461
Frame#	Time	L.Toe.Tip			R.Toe.Tip			L.Ankle.Lat			R.Ankle.Lat			L.Ankle.Med			R.Ankle.Med			L.Heel			R.Heel			L.Knee.Lat			R.Knee.Lat			L.Knee.Med			R.Knee.Med			L.Thigh.Upper			R.Thigh.Upper			L.ASIS			R.ASIS			V.Sacral			L.Acromium			R.Acromium			C7			L.Elbow			R.Elbow			L.Wrist.Lat			R.Wrist.Lat
		X1	Y1	Z1	X2	Y2	Z2	X3	Y3	Z3	X4	Y4	Z4	X5	Y5	Z5	X6	Y6	Z6	X7	Y7	Z7	X8	Y8	Z8	X9	Y9	Z9	X10	Y10	Z10	X11	Y11	Z11	X12	Y12	Z12	X13	Y13	Z13	X14	Y14	Z14	X15	Y15	Z15	X16	Y16	Z16	X17	Y17	Z17	X18	Y18	Z18	X19	Y19	Z19	X20	Y20	Z20	X21	Y21	Z21	X22	Y22	Z22	X23	Y23	Z23	X24	Y24	Z24

173	0.688	0.078736126	0.047062729	-0.11714714	-0.68019347	0.037479274	-0.0074672626	-0.05273869	0.044147868	-0.14703439	-0.81293481	0.086225046	0.022618884	-0.051413641	0.067749513	-0.062925002	-0.78000987	0.10402754	-0.062515479	-0.11086715	0.0021902814	-0.10449221	-0.86611642	0.077145355	-0.026665485	-0.14424949	0.42065921	-0.17656202	-0.5781321	0.41292508	0.067129822	-0.13613595	0.39836373	-0.056163942	-0.53935075	0.40438482	-0.059353023	-0.2906028	0.77089187	-0.23559817	-0.44775052	0.79849194	0.12456065	-0.26177214	0.87488117	-0.14800962	-0.34253066	0.87444911	0.092826569	-0.48872308	0.88867459	-0.10690253	-0.36273736	1.3468328	-0.21156865	-0.37804085	1.3330475	0.11895371	-0.46464284	1.3714297	-0.054352229	-0.52844259	1.0502392	-0.26085839	-0.34398267	0.97133368	0.16113149	-0.47950759	0.80888498	-0.29121869	-0.11801145	0.88441096	0.099260239
174	0.692	0.081809909	0.042068709	-0.11763116	-0.67980783	0.037549299	-0.0072828068	-0.049787164	0.043832385	-0.14684807	-0.81127377	0.089071726	0.023235734	-0.047027887	0.06732145	-0.06251822	-0.77806348	0.10633207	-0.061848623	-0.10949552	0.0038538112	-0.10424156	-0.86468192	0.081073636	-0.025771319	-0.13709831	0.42079046	-0.17680476	-0.56995411	0.41206377	0.067144018	-0.12863397	0.39863093	-0.056466497	-0.53335555	0.40356612	-0.05941614	-0.28307625	0.77069448	-0.23612418	-0.44029565	0.79706425	0.12453747	-0.25491841	0.87463061	-0.14817883	-0.33475939	0.87274838	0.092724692	-0.48156223	0.88828829	-0.10664291	-0.35611866	1.3459824	-0.21194986	-0.37194831	1.3324677	0.1186407	-0.4583454	1.3705294	-0.054786324	-0.52199365	1.049553	-0.26049461	-0.33757337	0.9706894	0.15958932	-0.47487957	0.80813681	-0.29140539	-0.11128085	0.88398243	0.097823155
175	0.696	0.084397563	0.038195287	-0.11761379	-0.67938917	0.037649341	-0.0070981905	-0.047081832	0.043263624	-0.14685794	-0.80935796	0.092122466	0.023887051	-0.043531194	0.066871818	-0.06240462	-0.77598852	0.10883805	-0.061037863	-0.10820399	0.0051515997	-0.10429571	-0.86306591	0.085329401	-0.024860494	-0.1296758	0.42137426	-0.17701058	-0.56248576	0.41134386	0.067039379	-0.12103862	0.3992875	-0.056709899	-0.52715869	0.40283007	-0.059450593	-0.27545339	0.77069623	-0.23666306	-0.43263017	0.79570086	0.124569	-0.24806932	0.87442836	-0.14851982	-0.32683311	0.87117318	0.092489275	-0.474357	0.88811707	-0.10631418	-0.3494968	1.3452476	-0.21234186	-0.36580966	1.3320528	0.11834426	-0.45194836	1.3697881	-0.055080191	-0.51537413	1.0489202	-0.26016108	-0.33129408	0.97016196	0.15800343	-0.47012743	0.8074461	-0.29160825	-0.10466814	0.88356058	0.096448228
176	0.7	0.086519778	0.035092229	-0.11702575	-0.67893024	0.037762058	-0.0069278187	-0.044763127	0.042618507	-0.14700206	-0.80710552	0.095337379	0.024521899	-0.040964109	0.066436437	-0.062501741	-0.77373743	0.11152002	-0.060115592	-0.10705214	0.0061513884	-0.10456304	-0.86115019	0.089869086	-0.024147825	-0.1218935	0.42238066	-0.17717889	-0.55720048	0.41089586	0.066705696	-0.11332116	0.40029948	-0.056832914	-0.52072208	0.40217604	-0.059437498	-0.26780258	0.7709159	-0.23718841	-0.42478093	0.7944024	0.12464742	-0.24122389	0.87430151	-0.14898745	-0.31875201	0.86974535	0.092113359	-0.46722766	0.88810861	-0.10596362	-0.34289806	1.3446167	-0.21275291	-0.35958865	1.3317868	0.11808805	-0.44543355	1.3691557	-0.055489067	-0.50861691	1.0483859	-0.25982968	-0.32512173	0.96974621	0.15636765	-0.46523056	0.80682398	-0.2918243	-0.098216968	0.88313976	0.095134852
177	0.704	0.08819547	0.032427793	-0.1159838	-0.67842463	0.037855983	-0.0067714211	-0.04289099	0.042126809	-0.14716888	-0.80444379	0.098706132	0.025117413	-0.039158909	0.066075086	-0.062667248	-0.77118375	0.11433597	-0.05913877	-0.10606604	0.0069802976	-0.10488134	-0.85889985	0.094670396	-0.023686702	-0.11373178	0.42372728	-0.1773079	-0.55303143	0.41072128	0.066336519	-0.10548886	0.401583	-0.056809398	-0.51400738	0.4015917	-0.059387288	-0.26017554	0.77135084	-0.23770824	-0.41678952	0.79317803	0.12476449	-0.23443503	0.87428258	-0.14952264	-0.31052773	0.86847303	0.091594213	-0.46020875	0.88816537	-0.10571584	-0.33634024	1.3440894	-0.21318274	-0.35328231	1.3316631	0.11788576	-0.43874989	1.3686048	-0.056122306	-0.50173371	1.0479537	-0.25949061	-0.31903607	0.96943989	0.15468445	-0.46016224	0.80628104	-0.29205766	-0.091936415	0.8827153	0.093887589
178	0.708	0.089461366	0.030086479	-0.11470137	-0.67787091	0.037916173	-0.0066201295	-0.041462929	0.041901909	-0.14726073	-0.8014424	0.10226114	0.025726996	-0.037919759	0.065825662	-0.062785432	-0.7682406	0.11726041	-0.058140003	-0.10523256	0.007705545	-0.10508373	-0.85628565	0.099724777	-0.023271774	-0.10524107	0.4252901	-0.17739554	-0.54779513	0.41067479	0.066168692	-0.097579319	0.40304832	-0.056660062	-0.50697128	0.40105209	-0.059323676	-0.25259019	0.77198335	-0.23825076	-0.40869163	0.79203483	0.12490779	-0.22771093	0.87439157	-0.15010798	-0.30218535	0.86735161	0.090934823	-0.45324756	0.88820411	-0.10556829	-0.32980339	1.3436781	-0.21361971	-0.3469022	1.3316771	0.11770954	-0.43188613	1.3681529	-0.056807844	-0.49471498	1.0475874	-0.2591568	-0.31303858	0.96925105	0.15297066	-0.45490934	0.80581825	-0.29230477	-0.08581265	0.88228679	0.092715096
179	0.712	0.090434174	0.028159873	-0.11342821	-0.67726366	0.037950369	-0.0064652244	-0.040409125	0.041912064	-0.1472235	-0.79825782	0.10605924	0.02643024	-0.037105139	0.065689988	-0.062825912	-0.76489326	0.12029465	-0.057111364	-0.10453209	0.0083339588	-0.10511437	-0.85318281	0.10501651	-0.022649254	-0.096529326	0.42693451	-0.17743569	-0.54046487	0.41054877	0.066231758	-0.089649715	0.40462431	-0.056430537	-0.49955401	0.40053533	-0.059254216	-0.24506426	0.77278337	-0.23882784	-0.40050787	0.79096928	0.12506224	-0.22099287	0.87463121	-0.15076384	-0.29375803	0.86637316	0.09014608	-0.44628441	0.88819308	-0.10534675	-0.32324175	1.3433896	-0.21405279	-0.34044113	1.3318179	0.11750501	-0.42492438	1.3678376	-0.057300072	-0.48754782	1.047255	-0.25884754	-0.30714289	0.96918592	0.151244	-0.44946758	0.80542857	-0.29255972	-0.079834765	0.88185582	0.091623638
